<?xml version="1.0" encoding="UTF-8"?>
<svg version="1.1" xmlns="http://www.w3.org/2000/svg" width="512" height="152">
<path d="M0 0 C60.78886311 0 60.78886311 0 71 9 C76.97960287 15.75393994 77.59960772 22.31648195 77.41015625 30.9609375 C77.05534271 36.45228105 74.88519951 40.15875071 71 44 C66.33150685 48 66.33150685 48 63 48 C63 48.66 63 49.32 63 50 C63.70125 50.0825 64.4025 50.165 65.125 50.25 C70.80962065 51.73294452 74.82983281 55.13152895 78 60 C81.30414806 68.59078495 80.6579443 76.01145887 77.234375 84.4296875 C72.84283256 93.57410181 65.15273039 97.31810618 56 101 C37.58437796 104.06927034 18.66964262 102 0 102 C0 68.34 0 34.68 0 0 Z M25 19 C25 26.59 25 34.18 25 42 C28.01125 42.061875 31.0225 42.12375 34.125 42.1875 C35.06230957 42.21481201 35.99961914 42.24212402 36.96533203 42.27026367 C42.07376811 42.32085841 45.58715956 41.86834628 50 39 C53.00558526 35.49348387 53.47470979 32.40209942 53.2890625 27.9296875 C52.85655103 25.04238119 51.84410875 23.23927491 50 21 C46.9255594 19.08369332 44.6082339 18.7608752 41.015625 18.8046875 C40.17290039 18.80968262 39.33017578 18.81467773 38.46191406 18.81982422 C37.40198242 18.83803223 36.34205078 18.85624023 35.25 18.875 C31.8675 18.91625 28.485 18.9575 25 19 Z M25 59 C25 66.92 25 74.84 25 83 C30.259375 83.12375 30.259375 83.12375 35.625 83.25 C37.265896 83.30462402 37.265896 83.30462402 38.93994141 83.36035156 C44.96509533 83.42888202 48.45890819 83.08551302 53 79 C55.97020142 74.54469787 55.74822843 70.22232901 55 65 C52.76144885 61.80206978 51.41498194 60.36455994 47.62817383 59.38891602 C45.08291446 59.01226965 42.7073811 58.88575883 40.13671875 58.90234375 C38.93728638 58.90609009 38.93728638 58.90609009 37.71362305 58.90991211 C36.71500244 58.91901611 35.71638184 58.92812012 34.6875 58.9375 C31.490625 58.958125 28.29375 58.97875 25 59 Z " fill="#FBFDFD" transform="translate(1,46)"/>
<path d="M0 0 C2.1356735 1.39729336 4.19070936 2.83539728 6.20703125 4.3984375 C5.3081343 10.20991082 2.89262311 14.83730911 -0.79296875 19.3984375 C-4.04296875 20.8359375 -4.04296875 20.8359375 -7.79296875 20.3984375 C-10.32285183 19.25081769 -12.73583676 17.95250779 -15.17578125 16.625 C-20.48568128 14.13647969 -26.1835255 13.54023684 -31.79296875 15.3984375 C-35.05173131 17.20330508 -35.05173131 17.20330508 -36.41796875 20.7734375 C-36.8629754 25.07516848 -36.47157602 26.08306897 -33.79296875 29.3984375 C-31.2670329 30.6160381 -28.99521541 31.53904236 -26.35546875 32.3984375 C-24.90834752 32.90741595 -23.46173641 33.41784699 -22.015625 33.9296875 C-21.30035645 34.1771875 -20.58508789 34.4246875 -19.84814453 34.6796875 C-9.16713536 38.4151224 1.0260432 42.18873457 6.296875 52.85546875 C9.47637379 61.73896109 8.50366443 70.69965725 5.20703125 79.3984375 C0.71383027 88.48251775 -6.36464763 94.01847333 -15.79296875 97.3984375 C-30.27277404 101.0376098 -45.17929974 98.08590208 -57.890625 90.64453125 C-59.9267482 89.31080784 -61.86326189 87.8811744 -63.79296875 86.3984375 C-63.24280465 82.14994809 -61.80605549 79.58848246 -59.29296875 76.1484375 C-58.66390625 75.27703125 -58.03484375 74.405625 -57.38671875 73.5078125 C-55.79296875 71.3984375 -55.79296875 71.3984375 -54.79296875 70.3984375 C-49.64434021 69.85962754 -47.07783707 71.1438793 -42.79296875 73.8984375 C-35.7759834 77.85756226 -29.73881767 78.84030826 -21.79296875 77.3984375 C-18.22086151 75.74619954 -18.22086151 75.74619954 -16.79296875 72.3984375 C-16.14259508 69.24748922 -15.8509848 66.49590236 -16.79296875 63.3984375 C-21.64004491 58.02540202 -29.3923751 56.66807525 -36.0703125 54.57421875 C-44.90996116 51.67388958 -53.20790909 48.07192865 -57.859375 39.58984375 C-61.39989374 31.27925375 -61.79207804 22.29236317 -58.88671875 13.7265625 C-54.71834557 4.4322169 -47.83601687 -1.10947322 -38.39453125 -4.71875 C-25.70905103 -7.82820611 -11.37958609 -6.52535706 0 0 Z " fill="#FBFDFD" transform="translate(150.79296875,50.6015625)"/>
<path d="M0 0 C9.21148183 1.02349798 14.01794223 2.17478115 19.86328125 9.2578125 C24.328247 15.71549566 25.14999025 20.34439867 25.11352539 28.16503906 C25.11367142 28.9849231 25.11381744 29.80480713 25.1139679 30.64953613 C25.11327218 33.35492616 25.10549572 36.06024702 25.09765625 38.765625 C25.09579086 40.64320844 25.09436753 42.52079237 25.09336853 44.39837646 C25.08955289 49.33688707 25.07973071 54.27536821 25.06866455 59.21386719 C25.05842996 64.25455324 25.05386652 69.29524405 25.04882812 74.3359375 C25.0381076 84.22397336 25.02051849 94.11197962 25 104 C16.75 104 8.5 104 0 104 C0 69.68 0 35.36 0 0 Z " fill="#FDFEFE" transform="translate(171,44)"/>
<path d="M0 0 C2.58167816 1.265306 5.08489264 2.60475786 7.5625 4.0625 C14.05584505 7.72238539 21.04839179 7.94905824 28.34375 6.55078125 C29.91536544 6.09668744 31.46258979 5.55905826 33 5 C32.67 6.258125 32.34 7.51625 32 8.8125 C29.3868943 20.87444443 31.73392497 28.69419178 38 39 C37.03320312 39.07476562 36.06640625 39.14953125 35.0703125 39.2265625 C24.90717293 40.25293897 16.80972636 42.24595965 9.875 50.375 C9.25625 51.24125 8.6375 52.1075 8 53 C6 51 6 51 4.8125 47.375 C2.52884452 41.17650656 -1.09610985 36.61414082 -6.90234375 33.38671875 C-9.5753809 32.16544695 -12.24984615 31.03441591 -15 30 C-15 29.34 -15 28.68 -15 28 C-14.13375 27.46375 -13.2675 26.9275 -12.375 26.375 C-7.17139366 23.05800923 -3.86687816 18.27039517 -1.6875 12.5625 C-0.88168838 8.38693067 -0.36491563 4.23494189 0 0 Z " fill="#F4AC3D" transform="translate(198,4)"/>
<path d="M0 0 C14 0 14 0 20 3 C21.3899408 5.7798816 21.18488204 7.9186326 21 11 C20 13.375 20 13.375 19 15 C19.515625 15.515625 20.03125 16.03125 20.5625 16.5625 C22.61584899 20.04426568 21.97665028 22.1631596 21 26 C19.42114034 28.05938216 18.30857577 28.84571211 16 30 C13.28024285 30.07187519 10.59325368 30.0927862 7.875 30.0625 C5.27625 30.041875 2.6775 30.02125 0 30 C0 20.1 0 10.2 0 0 Z M6 4 C6 6.97 6 9.94 6 13 C11.32170494 13.29562367 11.32170494 13.29562367 16 11 C15.67 9.02 15.34 7.04 15 5 C12.03 4.67 9.06 4.34 6 4 Z M6 17 C6 19.97 6 22.94 6 26 C11.26271712 26.44711919 11.26271712 26.44711919 16.0625 24.8125 C17.22574079 22.94965101 17.22574079 22.94965101 16.8125 20.375 C16.25355766 17.83447997 16.25355766 17.83447997 14 17 C12.62657169 16.9310528 11.24997898 16.91532292 9.875 16.9375 C7.956875 16.9684375 7.956875 16.9684375 6 17 Z " fill="#F8FCFC" transform="translate(229,80)"/>
<path d="M0 0 C5.6888402 1.13776804 6.93080327 2.82593383 10.0625 7.25 C10.90721165 8.40129152 11.7522593 9.5523366 12.59765625 10.703125 C12.96383057 11.21520508 13.33000488 11.72728516 13.70727539 12.25488281 C15.4084286 14.55135933 17.21466935 16.76833669 19 19 C19.33 12.73 19.66 6.46 20 0 C21.65 0 23.3 0 25 0 C25 9.9 25 19.8 25 30 C23.35 30 21.7 30 20 30 C18.05943561 27.95777276 16.53229526 26.0974694 14.9375 23.8125 C14.09276098 22.65211578 13.24771296 21.49195644 12.40234375 20.33203125 C11.85308228 19.55436401 11.85308228 19.55436401 11.29272461 18.76098633 C9.59905357 16.45381934 7.78793148 14.23491435 6 12 C5.67 17.94 5.34 23.88 5 30 C3.35 30 1.7 30 0 30 C0 20.1 0 10.2 0 0 Z " fill="#EAF5F5" transform="translate(335,118)"/>
<path d="M0 0 C5.6888402 1.13776804 6.93080327 2.82593383 10.0625 7.25 C10.90721165 8.40129152 11.7522593 9.5523366 12.59765625 10.703125 C12.96383057 11.21520508 13.33000488 11.72728516 13.70727539 12.25488281 C15.4084286 14.55135933 17.21466935 16.76833669 19 19 C19.33 12.73 19.66 6.46 20 0 C21.65 0 23.3 0 25 0 C25 9.9 25 19.8 25 30 C20 30 20 30 18.2265625 28.34765625 C17.69804687 27.59355469 17.16953125 26.83945313 16.625 26.0625 C16.03847656 25.25039062 15.45195312 24.43828125 14.84765625 23.6015625 C14.23792969 22.74304688 13.62820313 21.88453125 13 21 C11.69543691 19.30635669 10.38329678 17.61851409 9.0625 15.9375 C8.051875 14.638125 7.04125 13.33875 6 12 C5.67 17.94 5.34 23.88 5 30 C3.35 30 1.7 30 0 30 C0 20.1 0 10.2 0 0 Z " fill="#F1FAFA" transform="translate(283,80)"/>
<path d="M0 0 C17.37837838 0 17.37837838 0 23 4 C26.50495863 7.95721136 27.1506236 12.83449667 27 18 C25.5442684 22.67366462 23.81520815 25.90014338 20 29 C17.29283758 29.90238747 15.76223232 30.11851302 12.98828125 30.09765625 C11.96408081 30.09390991 11.96408081 30.09390991 10.91918945 30.09008789 C10.05898193 30.08098389 9.19877441 30.07187988 8.3125 30.0625 C4.1978125 30.0315625 4.1978125 30.0315625 0 30 C0 20.1 0 10.2 0 0 Z M5 5 C5 11.93 5 18.86 5 26 C14.17706376 26.87025643 14.17706376 26.87025643 18.0625 24.125 C21.32692626 20.54466153 21.27179908 17.94370526 21.2265625 13.26171875 C20.92266365 10.22796987 19.90951945 8.35017778 18 6 C14.14854957 4.07427479 9.19956748 4.95116782 5 5 Z " fill="#EBF7F7" transform="translate(272,118)"/>
<path d="M0 0 C4.23223736 3.07799081 7.04770097 6.84270785 8.19921875 12.01953125 C8.49838195 17.24972931 6.97803275 21.88084835 3.75 26 C-0.12135908 29.18972023 -3.88804486 30.3279785 -8.875 30 C-13.1111127 29.25502846 -16.015663 27.9263049 -19.25 25 C-22.24941212 19.801019 -22.80609387 15.83898568 -22.25 10 C-18.46795389 -0.35086304 -9.94941025 -3.061357 0 0 Z M-14.25 6 C-16.67805788 9.36795125 -17.50424769 11.97912809 -17.25 16.0625 C-16.69313347 19.1164733 -16.02858166 20.32206304 -14.1875 23 C-10.89208473 25.24368699 -9.09339799 25.75393332 -5.18359375 25.48046875 C-1.70434983 24.61592935 -0.26391859 22.86830829 1.75 20 C2.99705292 15.79119639 2.88592602 13.47973889 1.6875 9.25 C-0.55387116 5.49028064 -2.18406285 4.47065812 -6.25 3 C-9.50206208 3 -11.50684143 4.32051516 -14.25 6 Z " fill="#F2FAF9" transform="translate(323.25,119)"/>
<path d="M0 0 C14.84615385 0 14.84615385 0 19 3 C20.57455739 6.14911479 20.34799118 8.52008816 20 12 C18.54526197 14.33470194 16.93980241 16.01170253 15 18 C15.5775 18.78246094 16.155 19.56492187 16.75 20.37109375 C17.86375 21.88896484 17.86375 21.88896484 19 23.4375 C19.7425 24.44683594 20.485 25.45617187 21.25 26.49609375 C23 29 23 29 23 30 C20.2578125 30.33984375 20.2578125 30.33984375 17 30 C14.8046875 27.62890625 14.8046875 27.62890625 12.875 24.5625 C10.07598665 19.82185445 10.07598665 19.82185445 5 18 C5 21.96 5 25.92 5 30 C3.35 30 1.7 30 0 30 C0 20.1 0 10.2 0 0 Z M5 4 C5 7.3 5 10.6 5 14 C10.32170494 14.29562367 10.32170494 14.29562367 15 12 C15.2502157 8.91634129 15.2502157 8.91634129 15 6 C11.5980513 3.90649311 8.94727588 3.82057837 5 4 Z " fill="#F2F9F9" transform="translate(420,80)"/>
<path d="M0 0 C5.81886036 1.16377207 6.22810962 1.98214147 9.5 6.625 C10.2321875 7.64851563 10.964375 8.67203125 11.71875 9.7265625 C12.4715625 10.80679688 13.224375 11.88703125 14 13 C16.475 16.465 16.475 16.465 19 20 C19.33 13.4 19.66 6.8 20 0 C21.32 0 22.64 0 24 0 C24 9.9 24 19.8 24 30 C18.3111598 28.86223196 17.06919673 27.17406617 13.9375 22.75 C13.09278835 21.59870848 12.2477407 20.4476634 11.40234375 19.296875 C11.03616943 18.78479492 10.66999512 18.27271484 10.29272461 17.74511719 C8.5915714 15.44864067 6.78533065 13.23166331 5 11 C4.67 17.27 4.34 23.54 4 30 C2.68 30 1.36 30 0 30 C0 20.1 0 10.2 0 0 Z " fill="#F5FBFB" transform="translate(242,118)"/>
<path d="M0 0 C1.65 0 3.3 0 5 0 C5 4.29 5 8.58 5 13 C9.62 13 14.24 13 19 13 C19 8.71 19 4.42 19 0 C20.65 0 22.3 0 24 0 C24 9.9 24 19.8 24 30 C22.35 30 20.7 30 19 30 C19 25.71 19 21.42 19 17 C14.38 17 9.76 17 5 17 C5 21.29 5 25.58 5 30 C3.35 30 1.7 30 0 30 C0 20.1 0 10.2 0 0 Z " fill="#F8FCFC" transform="translate(486,80)"/>
<path d="M0 0 C1.65 0 3.3 0 5 0 C5 4.29 5 8.58 5 13 C9.3907926 9.57303992 12.78774163 5.99000426 16.19140625 1.57421875 C18 0 18 0 20.71484375 -0.23046875 C21.46894531 -0.15441406 22.22304688 -0.07835938 23 0 C21.19526171 4.05385937 18.54211524 6.86602486 15.55859375 10.09765625 C13.7955971 12.01883893 13.7955971 12.01883893 13 15 C14.82445514 17.68638002 14.82445514 17.68638002 17.3125 20.4375 C22.43965517 26.35344828 22.43965517 26.35344828 24 30 C21.30078125 30.3046875 21.30078125 30.3046875 18 30 C15.48046875 27.8828125 15.48046875 27.8828125 13.1875 25.125 C12.41792969 24.22007813 11.64835937 23.31515625 10.85546875 22.3828125 C9 20 9 20 8 18 C7.01 17.67 6.02 17.34 5 17 C5 21.29 5 25.58 5 30 C3.35 30 1.7 30 0 30 C0 20.1 0 10.2 0 0 Z " fill="#F7FCFB" transform="translate(314,80)"/>
<path d="M0 0 C1.2065625 0.0309375 1.2065625 0.0309375 2.4375 0.0625 C4.01078857 3.85003248 5.57716727 7.64034014 7.13720703 11.43334961 C7.66884392 12.72319346 8.20236022 14.01226435 8.73779297 15.30053711 C9.50722387 17.15273857 10.26933735 19.00797446 11.03125 20.86328125 C11.49208984 21.97872314 11.95292969 23.09416504 12.42773438 24.2434082 C13.4375 27.0625 13.4375 27.0625 13.4375 30.0625 C11.7875 30.0625 10.1375 30.0625 8.4375 30.0625 C6.9525 26.5975 6.9525 26.5975 5.4375 23.0625 C1.4775 22.7325 -2.4825 22.4025 -6.5625 22.0625 C-6.871875 23.196875 -7.18125 24.33125 -7.5 25.5 C-8.5625 29.0625 -8.5625 29.0625 -9.5625 30.0625 C-11.22867115 30.10313832 -12.89638095 30.105221 -14.5625 30.0625 C-12.44935027 23.45058163 -10.02972928 17.00034416 -7.4375 10.5625 C-7.07785156 9.65757813 -6.71820313 8.75265625 -6.34765625 7.8203125 C-5.83138672 6.53253906 -5.83138672 6.53253906 -5.3046875 5.21875 C-4.83844971 4.05569336 -4.83844971 4.05569336 -4.36279297 2.86914062 C-3.15664539 0.14629374 -3.1067663 0.07577479 0 0 Z M-1.5625 8.0625 C-2.5525 11.3625 -3.5425 14.6625 -4.5625 18.0625 C-1.9225 18.0625 0.7175 18.0625 3.4375 18.0625 C2.82759109 14.50469804 1.8591319 11.3796411 0.4375 8.0625 C-0.2225 8.0625 -0.8825 8.0625 -1.5625 8.0625 Z " fill="#F2FAFA" transform="translate(469.5625,79.9375)"/>
<path d="M0 0 C1.2065625 0.0309375 1.2065625 0.0309375 2.4375 0.0625 C4.01078857 3.85003248 5.57716727 7.64034014 7.13720703 11.43334961 C7.66884392 12.72319346 8.20236022 14.01226435 8.73779297 15.30053711 C9.50722387 17.15273857 10.26933735 19.00797446 11.03125 20.86328125 C11.49208984 21.97872314 11.95292969 23.09416504 12.42773438 24.2434082 C13.4375 27.0625 13.4375 27.0625 13.4375 30.0625 C11.7875 30.0625 10.1375 30.0625 8.4375 30.0625 C6.9525 26.5975 6.9525 26.5975 5.4375 23.0625 C1.4775 22.7325 -2.4825 22.4025 -6.5625 22.0625 C-6.871875 23.196875 -7.18125 24.33125 -7.5 25.5 C-8.5625 29.0625 -8.5625 29.0625 -9.5625 30.0625 C-11.22867115 30.10313832 -12.89638095 30.105221 -14.5625 30.0625 C-12.44935027 23.45058163 -10.02972928 17.00034416 -7.4375 10.5625 C-7.07785156 9.65757813 -6.71820313 8.75265625 -6.34765625 7.8203125 C-5.83138672 6.53253906 -5.83138672 6.53253906 -5.3046875 5.21875 C-4.83844971 4.05569336 -4.83844971 4.05569336 -4.36279297 2.86914062 C-3.15664539 0.14629374 -3.1067663 0.07577479 0 0 Z M-0.5625 7.0625 C-1.23369549 8.5187545 -1.89931807 9.97757867 -2.5625 11.4375 C-2.93375 12.24960938 -3.305 13.06171875 -3.6875 13.8984375 C-4.68745013 15.98248433 -4.68745013 15.98248433 -4.5625 18.0625 C-1.9225 18.0625 0.7175 18.0625 3.4375 18.0625 C2.76579194 14.2561543 1.71003436 10.71043184 0.4375 7.0625 C0.1075 7.0625 -0.2225 7.0625 -0.5625 7.0625 Z " fill="#F2FAF9" transform="translate(403.5625,79.9375)"/>
<path d="M0 0 C1.65 0 3.3 0 5 0 C8.23255677 6.76304503 11.09761229 13.64148625 13.8125 20.625 C14.12646729 21.43114746 14.44043457 22.23729492 14.76391602 23.06787109 C17 28.86668717 17 28.86668717 17 30 C15.02 30 13.04 30 11 30 C9.74335022 27.09399739 9 25.20395416 9 22 C5.04 22.33 1.08 22.66 -3 23 C-3.99 25.31 -4.98 27.62 -6 30 C-7.65 30 -9.3 30 -11 30 C-10.34695118 26.10982879 -9.19461184 22.69556088 -7.71484375 19.04296875 C-7.26689453 17.93115234 -6.81894531 16.81933594 -6.35742188 15.67382812 C-5.88884766 14.52333984 -5.42027344 13.37285156 -4.9375 12.1875 C-4.46505859 11.01767578 -3.99261719 9.84785156 -3.50585938 8.64257812 C-2.34111284 5.76012457 -1.17236766 2.87936035 0 0 Z M2 7 C1.49384702 8.26839526 0.99530901 9.53983102 0.5 10.8125 C0.2215625 11.52019531 -0.056875 12.22789062 -0.34375 12.95703125 C-1.1529162 15.11841216 -1.1529162 15.11841216 -1 18 C1.64 18 4.28 18 7 18 C5.68 14.37 4.36 10.74 3 7 C2.67 7 2.34 7 2 7 Z " fill="#F2F9F9" transform="translate(431,118)"/>
<path d="M0 0 C1.2065625 0.0309375 1.2065625 0.0309375 2.4375 0.0625 C4.01078857 3.85003248 5.57716727 7.64034014 7.13720703 11.43334961 C7.66884392 12.72319346 8.20236022 14.01226435 8.73779297 15.30053711 C9.50722387 17.15273857 10.26933735 19.00797446 11.03125 20.86328125 C11.49208984 21.97872314 11.95292969 23.09416504 12.42773438 24.2434082 C13.4375 27.0625 13.4375 27.0625 13.4375 30.0625 C11.7875 30.0625 10.1375 30.0625 8.4375 30.0625 C6.9525 26.5975 6.9525 26.5975 5.4375 23.0625 C1.4775 22.7325 -2.4825 22.4025 -6.5625 22.0625 C-6.871875 23.196875 -7.18125 24.33125 -7.5 25.5 C-8.5625 29.0625 -8.5625 29.0625 -9.5625 30.0625 C-11.22867115 30.10313832 -12.89638095 30.105221 -14.5625 30.0625 C-12.5692502 24.72661824 -10.56930475 19.39329882 -8.5625 14.0625 C-8.31209961 13.39669922 -8.06169922 12.73089844 -7.80371094 12.04492188 C-7.12229681 10.23708846 -6.4362773 8.43099289 -5.75 6.625 C-5.35167969 5.57441406 -4.95335937 4.52382812 -4.54296875 3.44140625 C-3.15631827 0.07698337 -3.15631827 0.07698337 0 0 Z M-0.5625 7.0625 C-1.8825 10.6925 -3.2025 14.3225 -4.5625 18.0625 C-1.5925 18.0625 1.3775 18.0625 4.4375 18.0625 C3.1175 14.4325 1.7975 10.8025 0.4375 7.0625 C0.1075 7.0625 -0.2225 7.0625 -0.5625 7.0625 Z " fill="#F1FAFA" transform="translate(266.5625,79.9375)"/>
<path d="M0 0 C5.94 0 11.88 0 18 0 C18.33 1.32 18.66 2.64 19 4 C18 5 18 5 15.05859375 5.09765625 C13.26615234 5.08025391 13.26615234 5.08025391 11.4375 5.0625 C9.64119141 5.04896484 9.64119141 5.04896484 7.80859375 5.03515625 C6.88175781 5.02355469 5.95492188 5.01195313 5 5 C5 7.64 5 10.28 5 13 C8.63 13 12.26 13 16 13 C16 14.32 16 15.64 16 17 C12.37 17 8.74 17 5 17 C5 19.97 5 22.94 5 26 C9.62 26 14.24 26 19 26 C19 27.32 19 28.64 19 30 C12.73 30 6.46 30 0 30 C0 20.1 0 10.2 0 0 Z " fill="#ECF8F8" transform="translate(366,118)"/>
<path d="M0 0 C2.5625 1.5 2.5625 1.5 4 3 C3.34 4.32 2.68 5.64 2 7 C1.278125 6.649375 0.55625 6.29875 -0.1875 5.9375 C-3.3122705 4.89590983 -4.88161996 5.10903428 -8 6 C-8.2113453 8.3912295 -8.2113453 8.3912295 -7 11 C-4.99898259 12.11353855 -4.99898259 12.11353855 -2.625 13 C0.42351698 14.22037921 1.89039538 14.88413226 4.1875 17.3125 C5.34195112 21.13106907 4.48409854 23.35721267 3 27 C1.875 28.875 1.875 28.875 0 30 C-6.18306217 31.44271451 -9.40984273 30.91154024 -15 28 C-14.67 26.68 -14.34 25.36 -14 24 C-11 24 -11 24 -9 25 C-6.6670134 25.04022391 -4.33293334 25.04320247 -2 25 C-1.67 23.35 -1.34 21.7 -1 20 C-1.85464844 19.59007812 -2.70929688 19.18015625 -3.58984375 18.7578125 C-4.69457031 18.21898437 -5.79929687 17.68015625 -6.9375 17.125 C-8.03964844 16.59132812 -9.14179688 16.05765625 -10.27734375 15.5078125 C-13 14 -13 14 -14 12 C-14.48153012 7.7464839 -14.44716755 5.6779637 -12.0625 2.0625 C-7.98224059 -0.68542981 -4.79234905 -0.85833117 0 0 Z " fill="#F0F8F8" transform="translate(402,118)"/>
<path d="M0 0 C2.96845667 0.62581269 4.35269589 2.0190701 6.09375 4.44140625 C5.76375 5.10140625 5.43375 5.76140625 5.09375 6.44140625 C1.79375 6.11140625 -1.50625 5.78140625 -4.90625 5.44140625 C-5.23625 7.09140625 -5.56625 8.74140625 -5.90625 10.44140625 C-5.20757812 10.77914062 -4.50890625 11.116875 -3.7890625 11.46484375 C-2.87898438 11.91085938 -1.96890625 12.356875 -1.03125 12.81640625 C-0.12632812 13.25726563 0.77859375 13.698125 1.7109375 14.15234375 C4.09375 15.44140625 4.09375 15.44140625 6.09375 17.44140625 C6.65046097 22.29274473 6.86387639 24.34455957 4.03125 28.37890625 C0.47467265 30.87607758 -1.5651367 31.44140625 -5.90625 31.44140625 C-8.4282436 30.65973572 -10.5379937 29.64970028 -12.90625 28.44140625 C-12.57625 26.79140625 -12.24625 25.14140625 -11.90625 23.44140625 C-11.205 23.77140625 -10.50375 24.10140625 -9.78125 24.44140625 C-6.64621884 25.53185187 -4.20061818 25.59463268 -0.90625 25.44140625 C0.20211423 23.55824466 0.20211423 23.55824466 1.09375 21.44140625 C-0.57009476 18.11371673 -4.18467711 17.73813791 -7.55859375 16.5390625 C-9.90625 15.44140625 -9.90625 15.44140625 -11.90625 12.44140625 C-12.46169077 8.15657748 -12.36996025 6.14445083 -9.96875 2.50390625 C-6.36438948 0.07647977 -4.25716851 -0.21995371 0 0 Z " fill="#F0F9F9" transform="translate(359.90625,79.55859375)"/>
<path d="M0 0 C2.296875 -0.265625 2.296875 -0.265625 5 0 C6.765625 1.828125 6.765625 1.828125 8.25 4.25 C9.00023437 5.43335937 9.00023437 5.43335937 9.765625 6.640625 C10.89305953 8.79559481 11.54231174 10.62437998 12 13 C12.66 13 13.32 13 14 13 C14.226875 12.34 14.45375 11.68 14.6875 11 C16.40414844 7.07623213 18.19754215 3.272188 21 0 C23.8125 -0.5 23.8125 -0.5 26 0 C24.59589263 3.89481038 22.70790088 7.04936985 20.4375 10.5 C16.57996465 16.93456104 15.91636811 22.59260365 16 30 C14.02 30 12.04 30 10 30 C10.03222656 29.23558594 10.06445312 28.47117187 10.09765625 27.68359375 C9.99592556 18.29046027 6.97559011 12.60831735 1.93359375 5.01953125 C0 2 0 2 0 0 Z " fill="#E9F9F2" transform="translate(367,80)"/>
<path d="M0 0 C1.65 0 3.3 0 5 0 C5 9.9 5 19.8 5 30 C3.35 30 1.7 30 0 30 C0 20.1 0 10.2 0 0 Z " fill="#F4FBFA" transform="translate(411,118)"/>
<path d="M0 0 C1.65 0 3.3 0 5 0 C5 9.9 5 19.8 5 30 C3.35 30 1.7 30 0 30 C0 20.1 0 10.2 0 0 Z " fill="#F9FCFC" transform="translate(230,118)"/>
<path d="M0 0 C1.65 0 3.3 0 5 0 C5 9.9 5 19.8 5 30 C3.35 30 1.7 30 0 30 C0 20.1 0 10.2 0 0 Z " fill="#F8FCFB" transform="translate(447,80)"/>
<path d="M0 0 C0 3.54091616 -0.73837086 4.39042792 -3 7 C-3.99 7.495 -3.99 7.495 -5 8 C-5.66 7.67 -6.32 7.34 -7 7 C-7 6.34 -7 5.68 -7 5 C-5.03277992 3.61876037 -3.03131672 2.28511874 -1 1 C-0.67 0.67 -0.34 0.34 0 0 Z " fill="#E6B14D" transform="translate(190,27)"/>
</svg>
